<svg width="20" height="20" viewBox="0 0 20 20" fill="none" xmlns="http://www.w3.org/2000/svg">
<g opacity="0.2">
<rect opacity="0.01" width="20" height="20" fill="black"/>
<path fill-rule="evenodd" clip-rule="evenodd" d="M17.1 12.6749L15.6 11.1666V7.4499C15.6413 4.59602 13.5712 2.14898 10.75 1.71657C9.14813 1.50562 7.533 1.9947 6.31727 3.05887C5.10153 4.12304 4.40295 5.65921 4.4 7.2749V11.1666L2.9 12.6749C2.5148 13.0665 2.40151 13.6507 2.61239 14.1579C2.82328 14.6652 3.31736 14.9968 3.86666 14.9999H6.66666V15.2832C6.74771 17.0446 8.23834 18.4086 10 18.3332C11.7616 18.4086 13.2523 17.0446 13.3333 15.2832V14.9999H16.1333C16.6826 14.9968 17.1767 14.6652 17.3876 14.1579C17.5985 13.6507 17.4852 13.0665 17.1 12.6749ZM11.6667 15.2832C11.5707 16.116 10.8362 16.7256 10 16.6666C9.16382 16.7256 8.42934 16.116 8.33333 15.2832V14.9999H11.6667V15.2832ZM5.575 12.3499L4.59166 13.3332H15.4083L14.4167 12.3499C14.1047 12.0354 13.9308 11.6096 13.9333 11.1666V7.41657C13.976 5.39832 12.5259 3.65677 10.5333 3.33324C9.40174 3.18555 8.26235 3.54199 7.41666 4.30824C6.55973 5.05605 6.06758 6.13756 6.06666 7.2749V11.1666C6.06701 11.6108 5.89003 12.0367 5.575 12.3499Z" fill="black"/>
</g>
</svg>
