<svg width="16" height="16" viewBox="0 0 16 16" fill="none" xmlns="http://www.w3.org/2000/svg">
<path fill-rule="evenodd" clip-rule="evenodd" d="M5 3.33301C5.55228 3.33301 6 2.88529 6 2.33301C6 1.78072 5.55228 1.33301 5 1.33301C4.44772 1.33301 4 1.78072 4 2.33301C4 2.88529 4.44772 3.33301 5 3.33301ZM6 7.99967C6 8.55196 5.55228 8.99967 5 8.99967C4.44772 8.99967 4 8.55196 4 7.99967C4 7.44739 4.44772 6.99967 5 6.99967C5.55228 6.99967 6 7.44739 6 7.99967ZM6 13.6663C6 14.2186 5.55228 14.6663 5 14.6663C4.44772 14.6663 4 14.2186 4 13.6663C4 13.1141 4.44772 12.6663 5 12.6663C5.55228 12.6663 6 13.1141 6 13.6663ZM12 7.99967C12 8.55196 11.5523 8.99967 11 8.99967C10.4477 8.99967 10 8.55196 10 7.99967C10 7.44739 10.4477 6.99967 11 6.99967C11.5523 6.99967 12 7.44739 12 7.99967ZM11 14.6663C11.5523 14.6663 12 14.2186 12 13.6663C12 13.1141 11.5523 12.6663 11 12.6663C10.4477 12.6663 10 13.1141 10 13.6663C10 14.2186 10.4477 14.6663 11 14.6663ZM12 2.33301C12 2.88529 11.5523 3.33301 11 3.33301C10.4477 3.33301 10 2.88529 10 2.33301C10 1.78072 10.4477 1.33301 11 1.33301C11.5523 1.33301 12 1.78072 12 2.33301Z" fill="black" fill-opacity="0.54"/>
</svg>
