<svg width="20" height="20" viewBox="0 0 20 20" fill="none" xmlns="http://www.w3.org/2000/svg">
<g opacity="0.2">
<rect opacity="0.01" width="20" height="20" fill="black"/>
<path fill-rule="evenodd" clip-rule="evenodd" d="M1.66669 10.0001C1.66669 5.39771 5.39765 1.66675 10 1.66675C12.2102 1.66675 14.3298 2.54472 15.8926 4.10752C17.4554 5.67033 18.3334 7.78994 18.3334 10.0001C18.3334 14.6025 14.6024 18.3334 10 18.3334C5.39765 18.3334 1.66669 14.6025 1.66669 10.0001ZM3.33335 10.0001C3.33335 13.682 6.31812 16.6667 10 16.6667C11.7681 16.6667 13.4638 15.9644 14.7141 14.7141C15.9643 13.4639 16.6667 11.7682 16.6667 10.0001C16.6667 6.31818 13.6819 3.33341 10 3.33341C6.31812 3.33341 3.33335 6.31818 3.33335 10.0001Z" fill="black"/>
<path d="M12.5 9.16675H10.8334V7.50008C10.8334 7.03984 10.4603 6.66675 10 6.66675C9.53978 6.66675 9.16669 7.03984 9.16669 7.50008V9.16675H7.50002C7.03978 9.16675 6.66669 9.53984 6.66669 10.0001C6.66669 10.4603 7.03978 10.8334 7.50002 10.8334H9.16669V12.5001C9.16669 12.9603 9.53978 13.3334 10 13.3334C10.4603 13.3334 10.8334 12.9603 10.8334 12.5001V10.8334H12.5C12.9603 10.8334 13.3334 10.4603 13.3334 10.0001C13.3334 9.53984 12.9603 9.16675 12.5 9.16675Z" fill="black"/>
</g>
</svg>
